<svg width="38" height="38" viewBox="0 0 38 38" fill="none" xmlns="http://www.w3.org/2000/svg">
<path d="M13.788 14.9V24H12.943V14.9H13.788ZM7.626 14.9V24H6.781V14.9H7.626ZM13.06 19.307V19.697H7.496V19.307H13.06ZM6.82 23.051V24H5.78V23.87C5.78 23.87 5.806 23.87 5.858 23.87C5.91867 23.87 5.949 23.87 5.949 23.87C6.17433 23.87 6.365 23.792 6.521 23.636C6.68567 23.4713 6.77233 23.2763 6.781 23.051H6.82ZM6.82 15.849H6.781C6.77233 15.6237 6.68567 15.433 6.521 15.277C6.365 15.1123 6.17433 15.03 5.949 15.03C5.949 15.03 5.91867 15.03 5.858 15.03C5.806 15.03 5.78 15.03 5.78 15.03V14.9H6.82V15.849ZM7.587 23.051H7.626C7.63467 23.2763 7.717 23.4713 7.873 23.636C8.03767 23.792 8.23267 23.87 8.458 23.87C8.458 23.87 8.484 23.87 8.536 23.87C8.588 23.87 8.61833 23.87 8.627 23.87V24H7.587V23.051ZM7.587 15.849V14.9H8.627V15.03C8.61833 15.03 8.588 15.03 8.536 15.03C8.484 15.03 8.458 15.03 8.458 15.03C8.23267 15.03 8.03767 15.1123 7.873 15.277C7.717 15.433 7.63467 15.6237 7.626 15.849H7.587ZM12.982 23.051V24H11.942V23.87C11.9507 23.87 11.981 23.87 12.033 23.87C12.085 23.87 12.111 23.87 12.111 23.87C12.3363 23.87 12.5313 23.792 12.696 23.636C12.8607 23.4713 12.943 23.2763 12.943 23.051H12.982ZM12.982 15.849H12.943C12.943 15.6237 12.8607 15.433 12.696 15.277C12.5313 15.1123 12.3363 15.03 12.111 15.03C12.111 15.03 12.085 15.03 12.033 15.03C11.981 15.03 11.9507 15.03 11.942 15.03V14.9H12.982V15.849ZM13.749 23.051H13.788C13.7967 23.2763 13.879 23.4713 14.035 23.636C14.1997 23.792 14.3947 23.87 14.62 23.87C14.62 23.87 14.646 23.87 14.698 23.87C14.7587 23.87 14.789 23.87 14.789 23.87V24H13.749V23.051ZM13.749 15.849V14.9H14.789V15.03C14.789 15.03 14.7587 15.03 14.698 15.03C14.646 15.03 14.62 15.03 14.62 15.03C14.3947 15.03 14.1997 15.1123 14.035 15.277C13.879 15.433 13.7967 15.6237 13.788 15.849H13.749ZM20.3523 16.018C20.959 16.018 21.5266 16.1177 22.0553 16.317C22.5926 16.5077 23.0606 16.785 23.4593 17.149C23.8666 17.513 24.183 17.9463 24.4083 18.449C24.6336 18.943 24.7463 19.4933 24.7463 20.1C24.7463 20.7067 24.6336 21.2613 24.4083 21.764C24.183 22.258 23.8666 22.687 23.4593 23.051C23.0606 23.415 22.5926 23.6967 22.0553 23.896C21.5266 24.0867 20.959 24.182 20.3523 24.182C19.7456 24.182 19.178 24.0867 18.6493 23.896C18.1206 23.6967 17.6526 23.415 17.2453 23.051C16.8466 22.687 16.5346 22.258 16.3093 21.764C16.084 21.2613 15.9713 20.7067 15.9713 20.1C15.9713 19.4933 16.084 18.943 16.3093 18.449C16.5346 17.9463 16.8466 17.513 17.2453 17.149C17.6526 16.785 18.1206 16.5077 18.6493 16.317C19.178 16.1177 19.7456 16.018 20.3523 16.018ZM20.3523 23.792C20.9936 23.792 21.5743 23.636 22.0943 23.324C22.6143 23.012 23.026 22.5787 23.3293 22.024C23.6326 21.4693 23.7843 20.828 23.7843 20.1C23.7843 19.3633 23.6326 18.722 23.3293 18.176C23.026 17.6213 22.6143 17.188 22.0943 16.876C21.5743 16.564 20.9936 16.408 20.3523 16.408C19.7196 16.408 19.1433 16.564 18.6233 16.876C18.1033 17.188 17.6916 17.6213 17.3883 18.176C17.085 18.722 16.9333 19.3633 16.9333 20.1C16.9333 20.828 17.085 21.4693 17.3883 22.024C17.6916 22.5787 18.1033 23.012 18.6233 23.324C19.1433 23.636 19.7196 23.792 20.3523 23.792ZM29.0603 14.939V24H28.2153V14.939H29.0603ZM32.4013 14.887V15.277H24.8743V14.887H32.4013ZM32.4013 15.238V16.291L32.2713 16.278V16.057C32.2713 15.8403 32.1933 15.6583 32.0373 15.511C31.8899 15.3637 31.7123 15.2857 31.5043 15.277V15.238H32.4013ZM32.4013 14.653V15.03L30.8153 14.887C31.0059 14.887 31.2053 14.874 31.4133 14.848C31.6299 14.822 31.8293 14.7917 32.0113 14.757C32.1933 14.7223 32.3233 14.6877 32.4013 14.653ZM28.2543 23.051V24H27.2143V23.87C27.2143 23.87 27.2403 23.87 27.2923 23.87C27.3529 23.87 27.3833 23.87 27.3833 23.87C27.6086 23.87 27.7993 23.792 27.9553 23.636C28.1199 23.4713 28.2066 23.2763 28.2153 23.051H28.2543ZM29.0213 23.051H29.0603C29.0689 23.2763 29.1513 23.4713 29.3073 23.636C29.4719 23.792 29.6669 23.87 29.8923 23.87C29.8923 23.87 29.9183 23.87 29.9703 23.87C30.0309 23.87 30.0613 23.87 30.0613 23.87V24H29.0213V23.051ZM25.7713 15.238V15.277C25.5546 15.2857 25.3726 15.3637 25.2253 15.511C25.0779 15.6583 25.0043 15.8403 25.0043 16.057V16.278L24.8743 16.291V15.238H25.7713ZM24.8743 14.653C24.9609 14.6877 25.0909 14.7223 25.2643 14.757C25.4463 14.7917 25.6456 14.822 25.8623 14.848C26.0789 14.874 26.2783 14.887 26.4603 14.887L24.8743 15.03V14.653Z" fill="white"/>
<circle cx="18.6799" cy="18.6799" r="18.1799" stroke="white"/>
</svg>
